# xmcd
#
# Track frame offsets:
# 150
# 37624
# 54986
# 70977
# 84087
# 86220
# 108386
# 127571
# 142323
# 157337
#
# Disc length: 2273 seconds
#
# Revision: 0
# Processed by: cddbd v1.4PL0 Copyright (c) Steve Scherf et al.
# Submitted via: Audion 2.5.0 (http://www.panic.com/audion/)
#
DISCID=7d08df0a
DTITLE=Total Sound Group Direct Action Committee - The Party Platform....Our Schedule is Change!
DYEAR=1900
DGENRE=
TTITLE0=the hard sell (mercy mercy)
TTITLE1=burn bright! ring true!
TTITLE2=happy boys happy
TTITLE3=the walk (or 3 is the magic number)
TTITLE4=a thought
TTITLE5=message with no words
TTITLE6=your too much
TTITLE7=tulsa
TTITLE8=keep your hook line and sinker
TTITLE9=any more than i do
EXTD=
EXTT0=
EXTT1=
EXTT2=
EXTT3=
EXTT4=
EXTT5=
EXTT6=
EXTT7=
EXTT8=
EXTT9=
PLAYORDER=
